<svg width="306" height="161" viewBox="0 0 306 161" fill="none" xmlns="http://www.w3.org/2000/svg">
<path d="M81.336 133V112.52H39.096V95.88L80.056 37.64H101.176V95.88H115.896V112.52H101.176V133H81.336ZM53.56 103.048L49.848 95.88H81.336V53L86.328 54.536L53.56 103.048ZM160.71 134.536C153.115 134.536 146.417 132.488 140.614 128.392C134.897 124.296 130.417 118.536 127.174 111.112C123.931 103.688 122.31 95.0693 122.31 85.256C122.31 75.3573 123.889 66.7387 127.046 59.4C130.289 52.0613 134.769 46.344 140.486 42.248C146.289 38.152 152.987 36.104 160.582 36.104C168.347 36.104 175.089 38.152 180.806 42.248C186.609 46.344 191.089 52.104 194.246 59.528C197.489 66.8667 199.11 75.4427 199.11 85.256C199.11 95.0693 197.489 103.688 194.246 111.112C191.089 118.451 186.609 124.211 180.806 128.392C175.089 132.488 168.39 134.536 160.71 134.536ZM160.838 116.616C164.763 116.616 168.091 115.379 170.822 112.904C173.553 110.429 175.643 106.845 177.094 102.152C178.545 97.4587 179.27 91.8267 179.27 85.256C179.27 78.6853 178.545 73.096 177.094 68.488C175.643 63.7947 173.51 60.2107 170.694 57.736C167.963 55.2613 164.593 54.024 160.582 54.024C156.657 54.024 153.329 55.2613 150.598 57.736C147.867 60.2107 145.777 63.7947 144.326 68.488C142.875 73.096 142.15 78.6853 142.15 85.256C142.15 91.7413 142.875 97.3307 144.326 102.024C145.777 106.717 147.867 110.344 150.598 112.904C153.414 115.379 156.827 116.616 160.838 116.616ZM248.031 133V112.52H205.791V95.88L246.751 37.64H267.871V95.88H282.591V112.52H267.871V133H248.031ZM220.255 103.048L216.543 95.88H248.031V53L253.023 54.536L220.255 103.048Z" fill="#00C1F8"/>
<path d="M73.336 133V112.52H31.096V95.88L72.056 37.64H93.176V95.88H107.896V112.52H93.176V133H73.336ZM45.56 103.048L41.848 95.88H73.336V53L78.328 54.536L45.56 103.048ZM152.71 134.536C145.115 134.536 138.417 132.488 132.614 128.392C126.897 124.296 122.417 118.536 119.174 111.112C115.931 103.688 114.31 95.0693 114.31 85.256C114.31 75.3573 115.889 66.7387 119.046 59.4C122.289 52.0613 126.769 46.344 132.486 42.248C138.289 38.152 144.987 36.104 152.582 36.104C160.347 36.104 167.089 38.152 172.806 42.248C178.609 46.344 183.089 52.104 186.246 59.528C189.489 66.8667 191.11 75.4427 191.11 85.256C191.11 95.0693 189.489 103.688 186.246 111.112C183.089 118.451 178.609 124.211 172.806 128.392C167.089 132.488 160.39 134.536 152.71 134.536ZM152.838 116.616C156.763 116.616 160.091 115.379 162.822 112.904C165.553 110.429 167.643 106.845 169.094 102.152C170.545 97.4587 171.27 91.8267 171.27 85.256C171.27 78.6853 170.545 73.096 169.094 68.488C167.643 63.7947 165.51 60.2107 162.694 57.736C159.963 55.2613 156.593 54.024 152.582 54.024C148.657 54.024 145.329 55.2613 142.598 57.736C139.867 60.2107 137.777 63.7947 136.326 68.488C134.875 73.096 134.15 78.6853 134.15 85.256C134.15 91.7413 134.875 97.3307 136.326 102.024C137.777 106.717 139.867 110.344 142.598 112.904C145.414 115.379 148.827 116.616 152.838 116.616ZM240.031 133V112.52H197.791V95.88L238.751 37.64H259.871V95.88H274.591V112.52H259.871V133H240.031ZM212.255 103.048L208.543 95.88H240.031V53L245.023 54.536L212.255 103.048Z" fill="#FA71D4"/>
<path d="M77.336 133V112.52H35.096V95.88L76.056 37.64H97.176V95.88H111.896V112.52H97.176V133H77.336ZM49.56 103.048L45.848 95.88H77.336V53L82.328 54.536L49.56 103.048ZM156.71 134.536C149.115 134.536 142.417 132.488 136.614 128.392C130.897 124.296 126.417 118.536 123.174 111.112C119.931 103.688 118.31 95.0693 118.31 85.256C118.31 75.3573 119.889 66.7387 123.046 59.4C126.289 52.0613 130.769 46.344 136.486 42.248C142.289 38.152 148.987 36.104 156.582 36.104C164.347 36.104 171.089 38.152 176.806 42.248C182.609 46.344 187.089 52.104 190.246 59.528C193.489 66.8667 195.11 75.4427 195.11 85.256C195.11 95.0693 193.489 103.688 190.246 111.112C187.089 118.451 182.609 124.211 176.806 128.392C171.089 132.488 164.39 134.536 156.71 134.536ZM156.838 116.616C160.763 116.616 164.091 115.379 166.822 112.904C169.553 110.429 171.643 106.845 173.094 102.152C174.545 97.4587 175.27 91.8267 175.27 85.256C175.27 78.6853 174.545 73.096 173.094 68.488C171.643 63.7947 169.51 60.2107 166.694 57.736C163.963 55.2613 160.593 54.024 156.582 54.024C152.657 54.024 149.329 55.2613 146.598 57.736C143.867 60.2107 141.777 63.7947 140.326 68.488C138.875 73.096 138.15 78.6853 138.15 85.256C138.15 91.7413 138.875 97.3307 140.326 102.024C141.777 106.717 143.867 110.344 146.598 112.904C149.414 115.379 152.827 116.616 156.838 116.616ZM244.031 133V112.52H201.791V95.88L242.751 37.64H263.871V95.88H278.591V112.52H263.871V133H244.031ZM216.255 103.048L212.543 95.88H244.031V53L249.023 54.536L216.255 103.048Z" fill="#365CF5"/>
<rect x="112" y="139" width="15" height="2" fill="#FA71D4"/>
<rect x="113" y="140" width="15" height="2" fill="#00C1F8"/>
<rect x="297" y="62" width="8" height="2" fill="#FA71D4"/>
<rect x="298" y="63" width="8" height="2" fill="#00C1F8"/>
<rect x="187" y="30" width="18" height="2" fill="#FA71D4"/>
<rect x="188" y="31" width="18" height="2" fill="#00C1F8"/>
<rect x="274" y="87" width="18" height="2" fill="#FA71D4"/>
<rect x="275" y="88" width="18" height="2" fill="#00C1F8"/>
<rect y="59" width="23" height="2" fill="#FA71D4"/>
<rect x="1.26367" y="60" width="22.737" height="2" fill="#00C1F8"/>
</svg>
